<svg width="13" height="13" viewBox="0 0 13 13" fill="none" xmlns="http://www.w3.org/2000/svg">
<path d="M6.5 0C6.10799 0 5.72399 0.0348613 5.35087 0.101715C5.24428 0.120809 5.13858 0.142492 5.03382 0.166766C4.98146 0.178902 4.92931 0.191623 4.87741 0.205029C4.46235 0.312051 4.06326 0.459189 3.68443 0.641977C3.58973 0.68768 3.49629 0.735617 3.40422 0.785688C2.89773 1.0612 2.43171 1.40207 2.01759 1.79695C1.867 1.94053 1.72329 2.09125 1.58696 2.24857C1.51882 2.32723 1.45252 2.40751 1.38811 2.48942C1.16276 2.77601 0.960959 3.08194 0.785662 3.40427C0.710531 3.54242 0.64025 3.68357 0.575072 3.82748C0.401273 4.21129 0.263707 4.6149 0.166715 5.03384C0.142492 5.13858 0.120783 5.24428 0.101664 5.3509C0.0348613 5.72399 0 6.10799 0 6.5C0 6.89201 0.0348613 7.27601 0.101715 7.64913C0.120809 7.75572 0.142492 7.86142 0.166766 7.96618C0.263707 8.38513 0.401324 8.78874 0.575123 9.17254C0.640326 9.31648 0.710557 9.45763 0.785713 9.59575C0.96101 9.91809 1.16284 10.224 1.38816 10.5106C1.45252 10.5925 1.51887 10.6728 1.58702 10.7515C1.72331 10.9088 1.86707 11.0595 2.01764 11.2031C2.43176 11.598 2.89778 11.9389 3.4043 12.2144C3.49639 12.2645 3.5898 12.3124 3.68451 12.3581C4.06331 12.5409 4.46245 12.688 4.87749 12.795C4.92936 12.8084 4.98149 12.8211 5.03389 12.8333C5.13863 12.8575 5.24433 12.8792 5.35095 12.8983C5.72399 12.9651 6.10799 13 6.5 13C7.47749 13 8.27272 12.2048 8.27272 11.2273C8.27272 10.2498 7.47749 9.45456 6.5 9.45456C6.17416 9.45456 5.90908 9.18948 5.90908 8.86364C5.90908 8.5378 6.17416 8.27272 6.5 8.27272H12.2908C12.5718 8.27272 12.8139 8.0748 12.8698 7.79942C12.9562 7.37415 13 6.937 13 6.5C13 2.91591 10.0841 0 6.5 0Z" fill="#3D3D3D"/>
<path d="M8.9192 4.96717C9.40872 4.96717 9.80556 4.57033 9.80556 4.08081C9.80556 3.59128 9.40872 3.19445 8.9192 3.19445C8.42967 3.19445 8.03284 3.59128 8.03284 4.08081C8.03284 4.57033 8.42967 4.96717 8.9192 4.96717Z" fill="#878787"/>
<path d="M6.5 3.965C6.98952 3.965 7.38636 3.56816 7.38636 3.07864C7.38636 2.58911 6.98952 2.19228 6.5 2.19228C6.01048 2.19228 5.61364 2.58911 5.61364 3.07864C5.61364 3.56816 6.01048 3.965 6.5 3.965Z" fill="#CACACA"/>
<path d="M4.0808 4.96717C4.57033 4.96717 4.96717 4.57033 4.96717 4.08081C4.96717 3.59128 4.57033 3.19445 4.0808 3.19445C3.59128 3.19445 3.19444 3.59128 3.19444 4.08081C3.19444 4.57033 3.59128 4.96717 4.0808 4.96717Z" fill="#DFDFDF"/>
<path d="M5.61371 3.07859C5.61371 2.58911 6.01052 2.1923 6.5 2.19223V0C2.91591 0 0 2.91591 0 6.5C0 10.0841 2.91591 13 6.5 13V9.45456C6.17416 9.45456 5.90908 9.18948 5.90908 8.86364C5.90908 8.5378 6.17416 8.27272 6.5 8.27272L6.5 3.96495C6.01052 3.96495 5.61371 3.56809 5.61371 3.07859ZM4.70755 4.70745C4.3614 5.0536 3.80019 5.0536 3.45406 4.70745C3.10791 4.3613 3.10791 3.80009 3.45406 3.45394C3.80019 3.10779 4.36137 3.10779 4.70755 3.45394C5.05365 3.80009 5.0537 4.3613 4.70755 4.70745Z" fill="#6D6D6D"/>
</svg>
