<svg width="271" height="270" viewBox="0 0 271 270" fill="none" xmlns="http://www.w3.org/2000/svg">
<path d="M265.308 135C265.308 206.691 207.191 264.808 135.5 264.808C63.809 264.808 5.692 206.691 5.692 135C5.692 63.309 63.809 5.192 135.5 5.192C207.191 5.192 265.308 63.309 265.308 135Z" fill="#F6F6F6" stroke="white" stroke-width="10.385"/>
<path opacity="0.3" fill-rule="evenodd" clip-rule="evenodd" d="M136 153.75C110.969 153.75 61 166.313 61 191.25V210H211V191.25C211 166.313 161.031 153.75 136 153.75V153.75ZM136 135C156.719 135 173.5 118.219 173.5 97.5C173.5 76.7813 156.719 60 136 60C115.281 60 98.5 76.7813 98.5 97.5C98.5 118.219 115.281 135 136 135" fill="#35374A"/>
</svg>
