<svg width="13" height="13" viewBox="0 0 13 13" fill="none" xmlns="http://www.w3.org/2000/svg">
<path d="M10.1292 6.6625L6.9875 6.06667L5.93125 3.03333L4.90208 3.38542L5.95833 6.39167L3.84583 8.82916L4.65833 9.53333L6.77083 7.09583L9.9125 7.69166L10.1292 6.6625Z" fill="#A8A8A8"/>
<path d="M6.49999 5.14583C5.74166 5.14583 5.14583 5.74167 5.14583 6.5C5.14583 7.25833 5.74166 7.85417 6.49999 7.85417C7.25833 7.85417 7.85416 7.25833 7.85416 6.5C7.85416 5.74167 7.25833 5.14583 6.49999 5.14583ZM6.49999 7.04167C6.20208 7.04167 5.95833 6.79792 5.95833 6.5C5.95833 6.20208 6.20208 5.95833 6.49999 5.95833C6.79791 5.95833 7.04166 6.20208 7.04166 6.5C7.04166 6.79792 6.79791 7.04167 6.49999 7.04167Z" fill="#5F5F5F"/>
<path d="M11.0229 7.3125C11.0771 7.04167 11.1042 6.77083 11.1042 6.5C11.1042 6.22917 11.0771 5.95833 11.0229 5.6875L11.9167 5.0375C12.025 4.95625 12.0792 4.79375 11.9979 4.65833L10.8333 2.65417C10.7521 2.51875 10.6167 2.46458 10.4813 2.54583L9.47918 2.97917C9.07293 2.62708 8.58542 2.35625 8.07084 2.16667L7.96251 1.05625C7.93542 0.920833 7.82709 0.8125 7.69167 0.8125H5.3625C5.22709 0.8125 5.09167 0.920833 5.09167 1.05625L4.92917 2.16667C4.41459 2.35625 3.92708 2.62708 3.52083 2.97917L2.51875 2.51875C2.38333 2.46458 2.22083 2.51875 2.16666 2.65417L1.00208 4.65833C0.92083 4.79375 0.974996 4.95625 1.08333 5.0375L1.97708 5.6875C1.92291 5.95833 1.89583 6.22917 1.89583 6.5C1.89583 6.77083 1.92291 7.04167 1.97708 7.3125L1.08333 7.9625C0.974996 8.04375 0.92083 8.20625 1.00208 8.34167L2.16666 10.3458C2.24791 10.4813 2.38333 10.5354 2.51875 10.4542L3.52083 10.0208C3.92708 10.3729 4.41459 10.6438 4.92917 10.8333L5.0375 11.9437C5.06459 12.0792 5.17292 12.1875 5.30834 12.1875H7.63751C7.77292 12.1875 7.90834 12.0792 7.90834 11.9437L8.01667 10.8333C8.53126 10.6438 9.01876 10.3729 9.42501 10.0208L10.4271 10.4813C10.5625 10.5354 10.725 10.4813 10.7792 10.3729L11.9438 8.36875C12.025 8.23333 11.9708 8.07083 11.8625 7.98958L11.0229 7.3125ZM6.50001 9.47917C4.84792 9.47917 3.52083 8.15208 3.52083 6.5C3.52083 4.84792 4.84792 3.52083 6.50001 3.52083C8.15209 3.52083 9.47918 4.84792 9.47918 6.5C9.47918 8.15208 8.15209 9.47917 6.50001 9.47917Z" fill="#5F5F5F"/>
</svg>
