<svg width="13" height="13" viewBox="0 0 13 13" fill="none" xmlns="http://www.w3.org/2000/svg">
<path d="M10.5625 7.3125H9.75L8.9375 8.89566L8.125 7.3125H7.3125L8.49266 9.34375L7.3125 11.375H8.125L8.9375 9.83166L9.75 11.375H10.5625L9.38356 9.34375L10.5625 7.3125Z" fill="#3D3D3D"/>
<path d="M7.71875 2.4375V1.625H5.65228C5.44927 1.62411 5.25336 1.6996 5.10345 1.83649C4.95353 1.97337 4.86059 2.16163 4.84307 2.36388L4.57787 5.28125H2.84375V6.09375H4.50397L4.09772 10.5625H2.03125V11.375H4.09772C4.30073 11.3759 4.49664 11.3004 4.64655 11.1635C4.79647 11.0266 4.88941 10.8384 4.90693 10.6361L5.31992 6.09375H7.3125V5.28125H5.39374L5.65228 2.4375H7.71875Z" fill="#5F5F5F"/>
</svg>
