<svg width="14" height="14" viewBox="0 0 14 14" fill="none" xmlns="http://www.w3.org/2000/svg">
<g clip-path="url(#clip0_6_2)">
<path d="M7.49266 11.5552C5.8343 11.5552 4.2629 11.1791 3.06786 10.4962C1.72965 9.7315 0.992661 8.66484 0.992661 7.49266C0.992661 6.32048 1.72965 5.25382 3.06786 4.4891C4.2629 3.80622 5.8343 3.43016 7.49266 3.43016C9.15102 3.43016 10.7224 3.80622 11.9175 4.4891C13.2557 5.25382 13.9927 6.32048 13.9927 7.49266C13.9927 8.66484 13.2557 9.7315 11.9175 10.4962C10.7224 11.1791 9.15102 11.5552 7.49266 11.5552ZM7.49266 5.05516C4.61974 5.05516 2.61766 6.33977 2.61766 7.49266C2.61766 8.64555 4.61974 9.93016 7.49266 9.93016C10.3656 9.93016 12.3677 8.64555 12.3677 7.49266C12.3677 6.33977 10.3656 5.05516 7.49266 5.05516Z" fill="#5F5F5F"/>
<path d="M7.49266 13.9927C6.32048 13.9927 5.25382 13.2556 4.4891 11.9175C3.80622 10.7224 3.43016 9.15097 3.43016 7.49266C3.43016 5.83435 3.80622 4.2629 4.4891 3.06786C5.25382 1.72967 6.32048 0.992661 7.49266 0.992661C8.66482 0.992661 9.7315 1.72967 10.4962 3.06786C11.1791 4.2629 11.5552 5.83435 11.5552 7.49266C11.5552 9.15097 11.1791 10.7224 10.4962 11.9175C9.7315 13.2556 8.66482 13.9927 7.49266 13.9927ZM7.49266 2.61766C6.33977 2.61766 5.05516 4.61974 5.05516 7.49266C5.05516 10.3656 6.33977 12.3677 7.49266 12.3677C8.64555 12.3677 9.93016 10.3656 9.93016 7.49266C9.93016 4.61974 8.64555 2.61766 7.49266 2.61766Z" fill="#4A4A4A"/>
<path d="M7.49266 13.9927V12.3677C8.64555 12.3677 9.93016 10.3656 9.93016 7.49266C9.93016 4.61974 8.64555 2.61766 7.49266 2.61766V0.992661C8.66482 0.992661 9.7315 1.72967 10.4962 3.06786C11.1791 4.2629 11.5552 5.83435 11.5552 7.49266C11.5552 9.15097 11.1791 10.7224 10.4962 11.9175C9.7315 13.2556 8.66482 13.9927 7.49266 13.9927Z" fill="#6D6D6D"/>
<path d="M7.49266 9.11766C8.39012 9.11766 9.11766 8.39012 9.11766 7.49266C9.11766 6.5952 8.39012 5.86766 7.49266 5.86766C6.5952 5.86766 5.86766 6.5952 5.86766 7.49266C5.86766 8.39012 6.5952 9.11766 7.49266 9.11766Z" fill="#6D6D6D"/>
<path d="M7.49266 5.86766C8.39012 5.86766 9.11766 6.59518 9.11766 7.49266C9.11766 8.39014 8.39012 9.11766 7.49266 9.11766" fill="#3D3D3D"/>
<path d="M7.49266 11.5552L7.49266 9.93016C10.3656 9.93016 12.3677 8.64555 12.3677 7.49266C12.3677 6.33977 10.3656 5.05516 7.49266 5.05516V3.43016C9.15102 3.43016 10.7224 3.80622 11.9175 4.4891C13.2557 5.25382 13.9927 6.32048 13.9927 7.49266C13.9927 8.66484 13.2557 9.7315 11.9175 10.4962C10.7224 11.1791 9.15102 11.5552 7.49266 11.5552Z" fill="#3D3D3D"/>
</g>
<defs>
<clipPath id="clip0_6_2">
<rect x="0.992661" y="0.992661" width="13" height="13" rx="6.5" fill="white"/>
</clipPath>
</defs>
</svg>
